HIERARCHY
ROOT ui
{
	 OFFSET 0 0 0
	 CHANNELS 3 XPosition YPosition Z Position
	 EndSite
	 {
	 OFFSET 0 -1 0
	 }
}
ROOT li
{
	 OFFSET 0 0 0
	 CHANNELS 3 XPosition YPosition Z Position
	 EndSite
	 {
	 OFFSET 0 -1 0
	 }
}
ROOT ul
{
	 OFFSET 0 0 0
	 CHANNELS 3 XPosition YPosition Z Position
	 EndSite
	 {
	 OFFSET 0 -1 0
	 }
}
ROOT ll
{
	 OFFSET 0 0 0
	 CHANNELS 3 XPosition YPosition Z Position
	 EndSite
	 {
	 OFFSET 0 -1 0
	 }
}
ROOT tt
{
	 OFFSET 0 0 0
	 CHANNELS 3 XPosition YPosition Z Position
	 EndSite
	 {
	 OFFSET 0 -1 0
	 }
}
ROOT tb
{
	 OFFSET 0 0 0
	 CHANNELS 3 XPosition YPosition Z Position
	 EndSite
	 {
	 OFFSET 0 -1 0
	 }
}
ROOT td
{
	 OFFSET 0 0 0
	 CHANNELS 3 XPosition YPosition Z Position
	 EndSite
	 {
	 OFFSET 0 -1 0
	 }
}
ROOT v
{
	 OFFSET 0 0 0
	 CHANNELS 3 XPosition YPosition Z Position
	 EndSite
	 {
	 OFFSET 0 -1 0
	 }
}
ROOT bn
{
	 OFFSET 0 0 0
	 CHANNELS 3 XPosition YPosition Z Position
	 EndSite
	 {
	 OFFSET 0 -1 0
	 }
}
MOTION
Frames: 16
Frame Time: 0.002
0.009797789573669434	4.5049500465393064E-4	0		0.4210206604003906	-2.522681640625	0		-1.0416868896484375	-0.06072130966186524	0		-0.7810875244140625	-2.53273046875	0		0.9509771118164062	-1.1875909423828126	0		2.3764267578125	-0.058174259185791014	0		1.811470458984375	-1.8104053955078125	0		5.54605908203125	0.14922879028320313	0		-0.236512939453125	5.868447265625	0		
-0.009850804328918456	-0.0071178522109985355	0		0.4206717224121094	-2.5193544921875	0		-1.0502421875	-0.05646229934692383	0		-0.7923837280273438	-2.5224267578125	0		0.971482177734375	-1.1883720703125	0		2.334828125	-0.05937522506713867	0		1.8090245361328126	-1.8099730224609376	0		5.5434560546875	0.15001614379882813	0		-0.2546861572265625	5.8588427734375	0		
0.0016737469434738158	-0.0018910050392150878	0		0.44030523681640626	-2.52914794921875	0		-1.0648216552734375	-0.0661363525390625	0		-0.7946766357421875	-2.522166015625	0		0.9620081176757812	-1.1969068603515625	0		2.367487548828125	-0.03609787750244141	0		1.80665673828125	-1.8095166015625	0		5.5328291015625	0.13688597106933595	0		-0.2917499694824219	5.85339794921875	0		
-0.027751277923583985	-0.0013449469804763794	0		0.43809588623046875	-2.52875830078125	0		-1.067241943359375	-0.06587565612792969	0		-0.806828857421875	-2.513810546875	0		1.037546142578125	-1.21603271484375	0		2.344194580078125	-0.017392858505249024	0		1.8043729248046876	-1.8090400390625	0		5.5303916015625	0.13771151733398437	0		-0.26063473510742186	5.85947998046875	0		
0.05884506607055664	-0.011606263160705567	0		0.4359760437011719	-2.528348876953125	0		-1.06956689453125	-0.06559156799316407	0		-0.7949786987304688	-2.51760400390625	0		0.9962894897460938	-1.219296142578125	0		2.37412060546875	0.018947160720825196	0		1.8021806640625	-1.8085458984375	0		5.53804931640625	0.13847412109375	0		-0.29749508666992186	5.8540732421875	0		
-0.029279983520507813	0.0033962020874023437	0		0.38202374267578126	-2.517554931640625	0		-1.0618023681640625	-0.06735340881347657	0		-0.792975341796875	-2.513302001953125	0		1.0481173095703125	-1.225201416015625	0		2.372850341796875	0.013524600982666016	0		1.800087158203125	-1.808035400390625	0		5.5448115234375	0.13924879455566405	0		-0.25107948303222655	5.8700986328125	0		
0.04859440612792969	0.0022542319297790526	0		0.436063232421875	-2.52249853515625	0		-1.0738995361328125	-0.06494894409179687	0		-0.7908724365234375	-2.50897412109375	0		1.0530523681640624	-1.23075390625	0		2.430898193359375	0.03770420837402344	0		1.7980970458984376	-1.8075087890625	0		5.53863623046875	0.13311572265625	0		-0.26871282958984377	5.86060009765625	0		
-0.023462886810302733	-0.004821510791778565	0		0.4302061462402344	-2.52700048828125	0		-1.075898681640625	-0.06458671569824219	0		-0.7947098999023438	-2.510577880859375	0		1.054068115234375	-1.240259521484375	0		2.37491357421875	0.04168912124633789	0		1.7962122802734375	-1.806965576171875	0		5.54157421875	0.12691819763183593	0		-0.28521240234375	5.85011669921875	0		
0.04067195892333984	-8.086900115013122E-4	0		0.42848318481445313	-2.5265078125	0		-1.082812744140625	-0.06816032409667969	0		-0.8063792114257813	-2.50209912109375	0		1.0561981201171875	-1.24875244140625	0		2.389107666015625	0.055201850891113284	0		1.794431396484375	-1.8064053955078125	0		5.5536064453125	0.1176558837890625	0		-0.3074585266113281	5.85569775390625	0		
-0.040100421905517575	0.0012169770002365113	0		0.3988768005371094	-2.522802734375	0		-1.074596435546875	-0.06880355834960937	0		-0.7940352783203125	-2.50575244140625	0		1.06347265625	-1.2512587890625	0		2.420228271484375	0.04161494445800781	0		1.792751220703125	-1.805827392578125	0		5.5608115234375	0.11742317962646484	0		-0.29354214477539065	5.864060546875	0		
0.05118270111083984	-0.004889279842376709	0		0.43829925537109377	-2.528537109375	0		-1.071247314453125	-0.0653776092529297	0		-0.8634908447265625	-2.492822509765625	0		1.07779931640625	-1.2607890625	0		2.41971875	0.06725846099853515	0		1.791167236328125	-1.8052301025390625	0		5.55913037109375	0.11824584197998046	0		-0.27557159423828126	5.85942919921875	0		
-0.04032156372070313	0.006259735107421875	0		0.4299151306152344	-2.5179208984375	0		-1.0778369140625	-0.06784740447998047	0		-0.7989115600585938	-2.48775439453125	0		1.0822406005859375	-1.26722802734375	0		2.416963134765625	0.040931346893310544	0		1.78967431640625	-1.80461181640625	0		5.56745849609375	0.10499707794189453	0		-0.27940777587890625	5.86297802734375	0		
0.034166461944580076	0.00133755099773407	0		0.4224967346191406	-2.524281982421875	0		-1.0893043212890625	-0.06624497222900391	0		-0.8023048706054687	-2.490193115234375	0		1.097769775390625	-1.2737138671875	0		2.434477294921875	0.04048770904541016	0		1.78826611328125	-1.803970703125	0		5.5479775390625	0.10592882537841797	0		-0.26116217041015627	5.85841552734375	0		
-0.03727184295654297	-0.005585564136505127	0		0.4211963806152344	-2.523651611328125	0		-1.013697509765625	-0.0671725616455078	0		-0.8056195068359375	-2.491591796875	0		1.10338671875	-1.279106201171875	0		2.4830546875	0.035858814239501956	0		1.786935791015625	-1.803305419921875	0		5.57447412109375	0.08955183410644531	0		-0.3108681640625	5.841337890625	0		
-0.020515480041503907	0.003947334051132202	0		0.4299087829589844	-2.531053955078125	0		-1.0860225830078125	-0.07008310699462891	0		-0.8418218994140625	-2.485732421875	0		1.1021185302734375	-1.278425048828125	0		2.486823486328125	0.047543861389160155	0		1.785677490234375	-1.8026153564453125	0		5.5592158203125	0.09744362640380859	0		-0.33229290771484377	5.8471123046875	0		
-0.021734189987182618	0.004636699199676513	0		0.43969723510742187	-2.536427734375	0		-1.087239990234375	-0.06941331481933594	0		-0.79203515625	-2.491390869140625	0		1.12483154296875	-1.291871337890625	0		2.5253876953125	0.015019012451171874	0		1.7844892578125	-1.8018992919921875	0		5.57194921875	0.091144287109375	0		-0.3136519775390625	5.84266552734375	0		
